<?xml version="1.0" encoding="utf-8"?>
<!-- Generator: Adobe Illustrator 27.2.0, SVG Export Plug-In . SVG Version: 6.00 Build 0)  -->
<svg version="1.1" id="Layer_1" xmlns="http://www.w3.org/2000/svg" xmlns:xlink="http://www.w3.org/1999/xlink" x="0px" y="0px"
	 viewBox="0 0 300 270" style="enable-background:new 0 0 300 270;" xml:space="preserve">
<style type="text/css">
	.st0{fill:url(#SVGID_1_);}
	.st1{fill:url(#SVGID_00000176026663190331922650000014836772510140599200_);}
	.st2{fill:url(#SVGID_00000122706851386641229740000001643673960183650946_);}
	.st3{fill:#FFFFFF;}
	.st4{fill:#5B1499;}
	.st5{fill:url(#SVGID_00000115491188447526535900000005672684861477979039_);}
	.st6{fill:#D51B5B;}
	.st7{fill:url(#SVGID_00000040553849555991787050000016358823517170256016_);}
	.st8{fill:url(#SVGID_00000121973283854505169140000017327646021852746943_);}
	.st9{fill:#FFFFFF;stroke:#D51B5B;stroke-width:5;stroke-miterlimit:10;}
	.st10{fill:url(#SVGID_00000177480503680139609590000017007608844660214681_);}
	.st11{fill:#FFFFFF;stroke:#D51B5B;stroke-width:7;stroke-linecap:round;stroke-linejoin:round;stroke-miterlimit:10;}
	.st12{fill:none;stroke:#5B1499;stroke-width:7;stroke-linecap:round;stroke-linejoin:round;stroke-miterlimit:10;}
	.st13{fill:#FFFFFF;stroke:#5B1499;stroke-width:7;stroke-linecap:round;stroke-linejoin:round;stroke-miterlimit:10;}
	.st14{fill:none;stroke:#D51B5B;stroke-width:7;stroke-linecap:round;stroke-linejoin:round;stroke-miterlimit:10;}
</style>
<linearGradient id="SVGID_1_" gradientUnits="userSpaceOnUse" x1="99.9988" y1="32.7479" x2="191.0532" y2="247.2586">
	<stop  offset="0" style="stop-color:#5D2E8E"/>
	<stop  offset="1.537954e-02" style="stop-color:#612D8C"/>
	<stop  offset="0.1947" style="stop-color:#942577"/>
	<stop  offset="0.3513" style="stop-color:#B92068"/>
	<stop  offset="0.4778" style="stop-color:#CF1D5E"/>
	<stop  offset="0.5583" style="stop-color:#D71B5B"/>
	<stop  offset="0.6192" style="stop-color:#DC2955"/>
	<stop  offset="0.7326" style="stop-color:#E74D47"/>
	<stop  offset="0.8435" style="stop-color:#F47536"/>
</linearGradient>
<path class="st0" d="M17,68h31.1c7.6,0,13,1.9,16.6,5.5c2.4,2.4,3.9,5.6,3.9,9.8v0.2c0,7-4,11.2-9.4,13.5
	c7.4,2.4,12.1,6.6,12.1,14.8v0.2c0,10.4-8.5,16.7-23,16.7H17V68z M44,92.2c5.1,0,8-1.7,8-5.3v-0.2c0-3.3-2.6-5.2-7.6-5.2H33.4v10.7
	H44z M46.4,115.1c5.1,0,8.1-2,8.1-5.5v-0.2c0-3.3-2.6-5.5-8.2-5.5H33.4v11.2H46.4z M78.7,116l22.7-17.3c5.6-4.4,7.8-7.3,7.8-10.9
	c0-3.8-2.7-6.2-6.8-6.2c-4.1,0-7.3,2.3-12.1,7.8L79,79.9c6.5-8.4,12.9-13,24.7-13c13.3,0,22.4,7.9,22.4,19.3v0.2
	c0,9.7-5,14.7-14,21.2l-10.4,7.3h25.1v13.7h-48V116z M137.5,68h31.1c7.6,0,13,1.9,16.6,5.5c2.4,2.4,3.9,5.6,3.9,9.8v0.2
	c0,7-4,11.2-9.4,13.5c7.4,2.4,12.1,6.6,12.1,14.8v0.2c0,10.4-8.5,16.7-23,16.7h-31.3V68z M164.4,92.2c5.1,0,8-1.7,8-5.3v-0.2
	c0-3.3-2.6-5.2-7.6-5.2h-10.9v10.7H164.4z M166.9,115.1c5.1,0,8.1-2,8.1-5.5v-0.2c0-3.3-2.6-5.5-8.2-5.5h-12.8v11.2H166.9z
	 M17.6,142h36.7v11.1h-24v7.8h21.7v10.5H30.3v16.4H17.6V142z M60,165v-0.1c0-13.2,10.6-23.8,24.7-23.8s24.6,10.5,24.6,23.7v0.1
	c0,13.2-10.6,23.8-24.7,23.8C70.5,188.7,60,178.2,60,165z M96.5,165v-0.1c0-6.6-4.8-12.4-11.8-12.4c-6.9,0-11.6,5.6-11.6,12.2v0.1
	c0,6.6,4.8,12.4,11.7,12.4C91.8,177.3,96.5,171.7,96.5,165z M117.7,142h21.7c7,0,11.9,1.8,14.9,5c2.7,2.6,4.1,6.2,4.1,10.7v0.1
	c0,7-3.7,11.7-9.4,14.1l10.9,16h-14.7l-9.2-13.9h-0.1h-5.4v13.9h-12.7V142z M138.7,164c4.3,0,6.8-2.1,6.8-5.4v-0.1
	c0-3.6-2.6-5.4-6.9-5.4h-8.3v11H138.7z M165.8,167.7V142h12.9v25.5c0,6.6,3.3,9.8,8.4,9.8c5.1,0,8.4-3,8.4-9.4V142h12.9v25.4
	c0,14.8-8.4,21.3-21.5,21.3C174,188.7,165.8,182.1,165.8,167.7z M217.6,142H231l10.9,17.7l10.9-17.7h13.4v45.8h-12.6v-26.3
	L242,179.5h-0.3l-11.7-17.8v26.2h-12.4V142z M236.9,115.1c-1.5-0.1-2.7-0.3-3.2-0.4V126c1,0.2,2.1,0.4,3.2,0.5V115.1z M219.4,104.4
	c-3-5.1-3.6-11-2.1-16.3l0,0l2-7.6l-7.5-2l6.6-1.9l-5.7-6c-4.4,5.9-7,13.2-7,21.1c0,15.9,10.5,29.2,24.9,33.6v-11.4
	C226.1,112.2,222.1,108.9,219.4,104.4z M253.3,106.8l10,11.8c7.7-6.4,12.6-16.1,12.6-27c0-1.4-0.1-2.8-0.3-4.2L253.3,106.8z
	 M262.7,119l-17.8-5.1l0,0c-1.8,0.6-3.5,0.9-5.1,1.1v11.7c0.3,0,0.6,0,1,0C249.1,126.7,256.7,123.8,262.7,119z M221.5,72.5
	c2.4-9,23.6-4.8,23.6-4.8s-13.9,12.4-6.7,21l9.7,11.8l12.3-18.4h14.2c-4.1-14.8-17.7-25.6-33.8-25.6c-11.4,0-21.5,5.4-27.9,13.8
	L221.5,72.5L221.5,72.5z M240.8,49.5c-23.2,0-42.1,18.9-42.1,42.1s18.9,42.1,42.1,42.1c23.2,0,42.1-18.9,42.1-42.1
	S264.1,49.5,240.8,49.5z M240.8,131.2c-21.9,0-39.6-17.7-39.6-39.6c0-21.9,17.7-39.6,39.6-39.6c21.9,0,39.6,17.7,39.6,39.6
	C280.5,113.5,262.7,131.2,240.8,131.2z M227,72.3c-0.9,0-1.6,0.7-1.6,1.6s0.7,1.6,1.6,1.6c0.9,0,1.6-0.7,1.6-1.6
	S227.9,72.3,227,72.3z M92.1,200.3h1.5v4.2v2.2c0.9-1.6,2.6-2.5,4.6-2.6c3.2,0,5.8,2.4,5.8,5.9c0,3.4-2.4,5.9-5.8,5.9
	c-2.1,0-3.7-1-4.6-2.6v2.3h-1.5V200.3z M102.4,210.1c0-2.6-1.9-4.5-4.4-4.5c-2.6,0-4.4,2-4.4,4.5c0,2.4,1.8,4.5,4.4,4.5
	C100.9,214.5,102.4,212.2,102.4,210.1L102.4,210.1z M108.8,215.5l-4.3-11h1.6l3.5,9.1l3.6-9.1h1.7l-6.4,15.4h-1.7L108.8,215.5z
	 M122.5,215.7v-15.4h2.4l5.7,12.9l5.7-12.9h2.4v15.4h-1.6l0-13.7l-6,13.7H130l-6-13.7l0,13.7H122.5z M153,215.7h-1.5v-2.3
	c-0.9,1.7-2.6,2.6-4.6,2.6c-3.6,0-5.8-2.8-5.8-5.9c0-3.3,2.4-5.9,5.8-5.9c2.4,0,4,1.4,4.6,2.7v-2.4h1.5V215.7z M142.6,210.1
	c0,2,1.4,4.5,4.5,4.5c2,0,3.4-1.1,4-2.7c0.2-0.5,0.4-1.2,0.4-1.8c0-0.6-0.1-1.2-0.4-1.8c-0.6-1.5-2.1-2.7-4.1-2.7
	C144.4,205.6,142.6,207.6,142.6,210.1L142.6,210.1z M156,204.5h1.5v1.8c0.8-1.7,2.3-2.1,3.6-2.1v1.5h-0.1c-2.2,0-3.4,1.4-3.4,3.9
	v6.1H156V204.5z M162.7,200.3h1.5v8.8l5-4.6h1.9l-5.4,4.9l5.6,6.3h-1.8l-5.4-6v6h-1.5V200.3z M173.2,210.5c0.1,2.8,2.5,4.2,4.4,4.1
	c1.7,0,3.1-0.9,3.8-2.3h1.6c-0.5,1.2-1.3,2.1-2.3,2.7c-0.9,0.6-2,0.9-3.2,0.9c-3.9,0-5.9-3.1-5.9-5.9c0-3.3,2.5-5.9,5.9-5.9
	c1.6,0,3,0.6,4.1,1.6c1.3,1.2,1.9,3,1.7,4.8H173.2z M181.8,209.3c-0.1-2-2-3.9-4.3-3.8c-2.4,0-4.2,1.8-4.3,3.8H181.8z M186.4,205.7
	h-2.2v-1.2h2.2v-4.2h1.5v4.2h2.5v1.2h-2.5v10h-1.5V205.7z M192.1,200.3h1.5v2.1h-1.5V200.3z M192.1,204.5h1.5v11.2h-1.5V204.5z
	 M196.6,204.5h1.5c0,0.6,0,1.2,0,2c0.6-1.5,2.2-2.4,4.2-2.3c3.5,0,4.7,2.4,4.7,5.1v6.4h-1.5v-6.1c0-2.4-1.1-4.1-3.6-4
	c-2.3,0-3.6,1.4-3.6,3.7v6.3h-1.5V204.5z M221.1,214.4c0,2.1-0.7,3.5-1.7,4.4c-1.1,1.1-2.7,1.7-4.2,1.7c-2.8,0-4.8-1.6-5.5-3.6h1.8
	c0.3,0.5,0.7,1,1.3,1.5c0.8,0.6,1.8,0.8,2.5,0.8c2.1,0,4.3-1.7,4.3-4.5v-1.4c-0.8,1.6-2.4,2.7-4.5,2.7c-3.5,0-5.8-2.7-5.8-5.9
	c0-3.4,2.4-5.9,5.8-5.9c2.2,0,3.9,1.2,4.5,2.6v-2.3h1.5V214.4z M210.7,210.1c0,2.3,1.6,4.5,4.5,4.5c1.3,0,2.4-0.5,3.1-1.3
	c0.8-0.8,1.2-1.9,1.2-3.2c0-0.9-0.3-2-1-2.9c-0.7-0.9-1.8-1.6-3.4-1.6C212.7,205.6,210.7,207.4,210.7,210.1L210.7,210.1z M228,200.3
	c2.2,0,3.2,0.2,4.1,1c1,0.8,1.6,2.2,1.6,3.7c0,1.5-0.6,2.9-1.6,3.7c-1,0.8-2.1,1-4.1,1h-2.5v6.1H224v-15.4H228z M225.7,208.1h2.5
	c1.3,0,2.1-0.1,2.9-0.6c0.7-0.4,1.1-1.4,1.1-2.5c0-1.1-0.5-2.1-1.2-2.5c-0.8-0.5-1.6-0.6-2.9-0.6h-2.4V208.1z M235.5,204.5h1.5v1.8
	c0.8-1.7,2.3-2.1,3.6-2.1v1.5h-0.1c-2.2,0-3.4,1.4-3.4,3.9v6.1h-1.5V204.5z M240.7,210.1c0-3.1,2.3-5.9,5.9-5.9c3.6,0,6,2.8,6,5.9
	c0,3.1-2.3,5.9-6,5.9C243,216,240.7,213.2,240.7,210.1L240.7,210.1z M242.2,210.1c0,2.5,1.9,4.5,4.4,4.5c2.5,0,4.4-1.9,4.4-4.5
	c0-2.6-1.9-4.5-4.4-4.5C244.1,205.6,242.2,207.5,242.2,210.1L242.2,210.1z M255.2,205.7h-1.6v-1.2h1.6v-0.9c0-3.5,2.7-3.6,3.9-3.6
	v1.2c-0.8,0-2.4,0-2.4,2.5v0.8h2.4v1.2h-2.4v10h-1.5V205.7z M265.7,207.3c0-1.2-0.8-1.9-1.9-1.9c-1.2,0-2,0.8-1.9,1.8
	c0,1.1,0.9,1.5,2.2,1.9c1.6,0.4,3.4,0.9,3.5,3.3c0.1,2.1-1.6,3.6-3.7,3.6c-1.8,0-3.8-1.1-3.8-3.5h1.5c0.1,1.5,1.2,2.2,2.3,2.2
	c1.3,0,2.2-1,2.2-2.1c0-1.3-0.9-1.8-2.8-2.4c-1.6-0.5-2.9-1.1-2.9-2.9c0-2,1.6-3.2,3.5-3.2c1.6,0,3.3,0.9,3.4,3.1H265.7z
	 M85.7,200.3h-68v19.4h68V200.3z"/>
</svg>
