<?xml version="1.0" encoding="utf-8"?>
<!-- Generator: Adobe Illustrator 27.2.0, SVG Export Plug-In . SVG Version: 6.00 Build 0)  -->
<svg version="1.1" id="Layer_1" xmlns="http://www.w3.org/2000/svg" xmlns:xlink="http://www.w3.org/1999/xlink" x="0px" y="0px"
	 viewBox="0 0 300 270" style="enable-background:new 0 0 300 270;" xml:space="preserve">
<style type="text/css">
	.st0{fill:url(#SVGID_1_);}
	.st1{fill:url(#SVGID_00000139260757949467000450000003593209470825102738_);}
	.st2{fill:url(#SVGID_00000073699912880534609980000009253019990707381395_);}
	.st3{fill:#FFFFFF;}
	.st4{fill:#5B1499;}
	.st5{fill:url(#SVGID_00000177462717971663390190000015036463961274909830_);}
	.st6{fill:#D51B5B;}
	.st7{fill:url(#SVGID_00000055681370142119883300000007170284637644264355_);}
	.st8{fill:url(#SVGID_00000014624616395292266660000016071228226939931291_);}
	.st9{fill:#FFFFFF;stroke:#D51B5B;stroke-width:5;stroke-miterlimit:10;}
	.st10{fill:url(#SVGID_00000183957020213992926990000008209477567172063649_);}
	.st11{fill:#FFFFFF;stroke:#D51B5B;stroke-width:7;stroke-linecap:round;stroke-linejoin:round;stroke-miterlimit:10;}
	.st12{fill:none;stroke:#5B1499;stroke-width:7;stroke-linecap:round;stroke-linejoin:round;stroke-miterlimit:10;}
	.st13{fill:#FFFFFF;stroke:#5B1499;stroke-width:7;stroke-linecap:round;stroke-linejoin:round;stroke-miterlimit:10;}
	.st14{fill:none;stroke:#D51B5B;stroke-width:7;stroke-linecap:round;stroke-linejoin:round;stroke-miterlimit:10;}
</style>
<g>
	<linearGradient id="SVGID_1_" gradientUnits="userSpaceOnUse" x1="101.2293" y1="22.9579" x2="199.5634" y2="254.6187">
		<stop  offset="0" style="stop-color:#5D2E8E"/>
		<stop  offset="1.537954e-02" style="stop-color:#612D8C"/>
		<stop  offset="0.1947" style="stop-color:#942577"/>
		<stop  offset="0.3513" style="stop-color:#B92068"/>
		<stop  offset="0.4778" style="stop-color:#CF1D5E"/>
		<stop  offset="0.5583" style="stop-color:#D71B5B"/>
		<stop  offset="0.6192" style="stop-color:#DC2955"/>
		<stop  offset="0.7326" style="stop-color:#E74D47"/>
		<stop  offset="0.8435" style="stop-color:#F47536"/>
	</linearGradient>
	<path class="st0" d="M197,138.6h46c3,0,5.4-2.4,5.4-5.4v-14.4c0-3-2.4-5.4-5.4-5.4h-46c-3,0-5.4,2.4-5.4,5.4v14.4
		C191.5,136.1,194,138.6,197,138.6z M198.5,120.3h42.8v11.3h-42.8V120.3z M191.5,152.5c0-1.9,1.6-3.5,3.5-3.5h49.8
		c1.9,0,3.5,1.6,3.5,3.5s-1.6,3.5-3.5,3.5H195C193.1,156,191.5,154.4,191.5,152.5z M191.5,170.8c0-1.9,1.6-3.5,3.5-3.5h49.8
		c1.9,0,3.5,1.6,3.5,3.5s-1.6,3.5-3.5,3.5H195C193.1,174.3,191.5,172.8,191.5,170.8z M252,63c0.3-1.7,0.4-3.5,0.4-5.3
		c0-18-14.6-32.6-32.6-32.6h-29.6c-18,0-32.6,14.6-32.6,32.6c0,1.8,0.2,3.5,0.4,5.3h-9.8v7h11.8c4.1,9.9,12.9,17.5,23.7,19.7
		l-0.8,2.7c0,0,0,0.1,0,0.1c-1.1,4.4,0.2,8.5,3.5,10.6c1.3,0.8,2.8,1.3,4.4,1.3c2.7,0,5.6-1.2,8.3-3.4c0.1-0.1,0.2-0.2,0.4-0.3
		l9.4-10.2h10.9c13.6,0,25.3-8.4,30.2-20.3h1.1c5.6,0,10.1,4.5,10.1,10.1v107.1h-82.9h-7h-16h-7H81.9h-7h-16h-7H40.6V80
		c0-5.6,4.5-10.1,10.1-10.1h31.2v-7H50.7c-9.4,0-17.1,7.7-17.1,17.1v119.8c0,9.4,7.7,17.1,17.1,17.1h63.5L102,244h-7.7
		c-1.9,0-3.5,1.6-3.5,3.5s1.6,3.5,3.5,3.5h9.9c0,0,0,0,0,0c0,0,0,0,0,0h93.2c0,0,0,0,0,0c0,0,0,0,0,0h9.9c1.9,0,3.5-1.6,3.5-3.5
		s-1.6-3.5-3.5-3.5h-7.7l-12.2-27h63.5c9.4,0,17.1-7.7,17.1-17.1V80C268.2,70.9,261,63.4,252,63z M219.8,83.2h-12.5
		c-1,0-1.9,0.4-2.6,1.1l-10.3,11.2c-2.1,1.6-3.7,2-4.3,1.6c-0.5-0.3-0.9-1.4-0.5-2.9l2-6.5c0.3-1,0.1-2.1-0.5-3s-1.6-1.4-2.6-1.5
		c-13.4-0.9-23.9-12.1-23.9-25.5c0-14.1,11.5-25.6,25.6-25.6h29.6c14.1,0,25.6,11.5,25.6,25.6c0,2.6-0.4,5.2-1.1,7.6
		c0,0,0,0.1,0,0.1C241,75.7,231.3,83.2,219.8,83.2z M192.1,244h-82.4l12.2-27h58L192.1,244z M251.1,209.9h-69c0,0,0,0,0,0h-62.3
		c0,0,0,0,0,0h-69c-5.6,0-10.1-4.5-10.1-10.1v-5.7h14.8h119.4h86.4v5.7C261.2,205.4,256.7,209.9,251.1,209.9z M154.2,200.2
		c0.9,1.7,0.2,3.8-1.6,4.7l-0.2,0.1c-0.5,0.3-1,0.4-1.6,0.4c-1.3,0-2.5-0.7-3.1-1.9c-0.9-1.7-0.2-3.8,1.6-4.7l0.2-0.1
		C151.2,197.8,153.3,198.5,154.2,200.2z M155.3,168.1v19h-7v-19c0-1.9,1.6-3.5,3.5-3.5S155.3,166.2,155.3,168.1z M81.9,168.1v19h-7
		v-19c0-1.9,1.6-3.5,3.5-3.5S81.9,166.2,81.9,168.1z M81.9,69.9v-7v-5.2v-3.2c0-17.4,9-29.5,24.8-33.3c11-2.7,22.2-0.6,30,5.5
		c5.3,4.2,11.7,12.4,11.7,27.9v3.2v5.2v7v2.7c0,10-4.6,19.6-12.5,25.9v9.9c24.1,3.7,42.5,24.9,42.5,49.5v29.2h-7v-29.2
		c0-22.1-17.3-41-39.3-42.9c-1.8-0.2-3.2-1.7-3.2-3.5V96.8c0,0,0,0,0,0c0-0.1,0-0.1,0-0.2c0-0.1,0-0.3,0-0.4c0-0.1,0-0.2,0.1-0.3
		c0-0.1,0.1-0.2,0.1-0.4c0-0.1,0.1-0.2,0.1-0.3c0.1-0.1,0.1-0.2,0.2-0.3c0.1-0.1,0.1-0.2,0.2-0.2c0.1-0.1,0.2-0.2,0.2-0.3
		c0.1-0.1,0.2-0.1,0.3-0.2c0.1-0.1,0.1-0.1,0.2-0.2c1.5-1.1,2.9-2.3,4.1-3.7c4.4-4.8,6.9-11.1,6.9-17.6v-3.9v-11v0v-3.2
		c0-10.1-3-17.7-9-22.4c-6.1-4.8-15-6.3-24-4.2c-12.5,3-19.4,12.5-19.4,26.5v3.2v0v11v3.9c0,6.6,2.5,12.8,6.9,17.6
		c1.2,1.4,2.6,2.6,4.1,3.7c0.1,0.1,0.2,0.1,0.2,0.2c0.1,0.1,0.2,0.1,0.2,0.2c0.1,0.1,0.2,0.2,0.3,0.3c0.1,0.1,0.1,0.1,0.2,0.2
		c0.1,0.1,0.1,0.2,0.2,0.4c0,0.1,0.1,0.2,0.1,0.2c0.1,0.1,0.1,0.3,0.1,0.4c0,0.1,0.1,0.2,0.1,0.3c0,0.2,0,0.3,0,0.5
		c0,0.1,0,0.1,0,0.2c0,0,0,0,0,0v0.1c0,0,0,0,0,0v14.7c0,1.8-1.4,3.3-3.2,3.5c-22,1.9-39.3,20.8-39.3,42.9v29.2h-7v-29.2
		c0-24.6,18.4-45.8,42.5-49.5v-9.9c-7.8-6.3-12.5-15.8-12.5-25.9V69.9z M228.2,50.5c0,1.9-1.6,3.5-3.5,3.5h-39.3
		c-1.9,0-3.5-1.6-3.5-3.5s1.6-3.5,3.5-3.5h39.3C226.6,47,228.2,48.6,228.2,50.5z M228.2,66c0,1.9-1.6,3.5-3.5,3.5h-10.5
		c-1.9,0-3.5-1.6-3.5-3.5s1.6-3.5,3.5-3.5h10.5C226.6,62.5,228.2,64.1,228.2,66z M199.4,66c0,1.9-1.6,3.5-3.5,3.5h-10.5
		c-1.9,0-3.5-1.6-3.5-3.5s1.6-3.5,3.5-3.5h10.5C197.8,62.5,199.4,64.1,199.4,66z"/>
</g>
</svg>
