<?xml version="1.0" encoding="utf-8"?>
<!-- Generator: Adobe Illustrator 27.2.0, SVG Export Plug-In . SVG Version: 6.00 Build 0)  -->
<svg version="1.1" id="Layer_1" xmlns="http://www.w3.org/2000/svg" xmlns:xlink="http://www.w3.org/1999/xlink" x="0px" y="0px"
	 viewBox="0 0 300 270" style="enable-background:new 0 0 300 270;" xml:space="preserve">
<style type="text/css">
	.st0{fill:url(#SVGID_1_);}
	.st1{fill:url(#SVGID_00000056427052487158409360000006298832316774824860_);}
	.st2{fill:url(#SVGID_00000060027176282153869810000008539990851770314138_);}
	.st3{fill:#FFFFFF;}
	.st4{fill:#5B1499;}
	.st5{fill:url(#SVGID_00000065055793724070125660000001704721264413090185_);}
	.st6{fill:#D51B5B;}
	.st7{fill:url(#SVGID_00000146488883236842762250000017754375460883768728_);}
	.st8{fill:url(#SVGID_00000163756736023027714130000014514064479076566698_);}
	.st9{fill:#FFFFFF;stroke:#D51B5B;stroke-width:5;stroke-miterlimit:10;}
	.st10{fill:url(#SVGID_00000030483415367757492230000011745441003444946318_);}
	.st11{fill:#FFFFFF;stroke:#D51B5B;stroke-width:7;stroke-linecap:round;stroke-linejoin:round;stroke-miterlimit:10;}
	.st12{fill:none;stroke:#5B1499;stroke-width:7;stroke-linecap:round;stroke-linejoin:round;stroke-miterlimit:10;}
	.st13{fill:#FFFFFF;stroke:#5B1499;stroke-width:7;stroke-linecap:round;stroke-linejoin:round;stroke-miterlimit:10;}
	.st14{fill:none;stroke:#D51B5B;stroke-width:7;stroke-linecap:round;stroke-linejoin:round;stroke-miterlimit:10;}
</style>
<g>
	<linearGradient id="SVGID_1_" gradientUnits="userSpaceOnUse" x1="105.8258" y1="30.9321" x2="194.1742" y2="239.0679">
		<stop  offset="0" style="stop-color:#5D2E8E"/>
		<stop  offset="1.537954e-02" style="stop-color:#612D8C"/>
		<stop  offset="0.1947" style="stop-color:#942577"/>
		<stop  offset="0.3513" style="stop-color:#B92068"/>
		<stop  offset="0.4778" style="stop-color:#CF1D5E"/>
		<stop  offset="0.5583" style="stop-color:#D71B5B"/>
		<stop  offset="0.6192" style="stop-color:#DC2955"/>
		<stop  offset="0.7326" style="stop-color:#E74D47"/>
		<stop  offset="0.8435" style="stop-color:#F47536"/>
	</linearGradient>
	<path class="st0" d="M87,163.7c0,12.6-10.3,22.8-22.8,22.8s-22.8-10.3-22.8-22.8c0-12.6,10.3-22.8,22.8-22.8H87V163.7z M98.5,163.7
		c0-12.6,10.3-22.8,22.8-22.8s22.8,10.3,22.8,22.8v57.2c0,12.6-10.3,22.8-22.8,22.8s-22.8-10.3-22.8-22.8
		C98.5,220.8,98.5,163.7,98.5,163.7z M121.3,72c-12.6,0-22.8-10.3-22.8-22.8s10.3-22.8,22.8-22.8s22.8,10.3,22.8,22.8V72H121.3z
		 M121.3,83.5c12.6,0,22.8,10.3,22.8,22.8s-10.3,22.8-22.8,22.8H64.2c-12.6,0-22.8-10.3-22.8-22.8s10.3-22.8,22.8-22.8
		C64.2,83.5,121.3,83.5,121.3,83.5z M213,106.3c0-12.6,10.3-22.8,22.8-22.8c12.6,0,22.8,10.3,22.8,22.8s-10.3,22.8-22.8,22.8H213
		V106.3z M201.5,106.3c0,12.6-10.3,22.8-22.8,22.8c-12.6,0-22.8-10.3-22.8-22.8V49.2c0-12.6,10.3-22.8,22.8-22.8
		c12.6,0,22.8,10.3,22.8,22.8V106.3z M178.7,198c12.6,0,22.8,10.3,22.8,22.8c0,12.6-10.3,22.8-22.8,22.8
		c-12.6,0-22.8-10.3-22.8-22.8V198H178.7z M178.7,186.5c-12.6,0-22.8-10.3-22.8-22.8c0-12.6,10.3-22.8,22.8-22.8h57.2
		c12.6,0,22.8,10.3,22.8,22.8c0,12.6-10.3,22.8-22.8,22.8H178.7z"/>
</g>
</svg>
