<?xml version="1.0" encoding="utf-8"?>
<!-- Generator: Adobe Illustrator 27.2.0, SVG Export Plug-In . SVG Version: 6.00 Build 0)  -->
<svg version="1.1" id="Layer_1" xmlns="http://www.w3.org/2000/svg" xmlns:xlink="http://www.w3.org/1999/xlink" x="0px" y="0px"
	 viewBox="0 0 300 270" style="enable-background:new 0 0 300 270;" xml:space="preserve">
<style type="text/css">
	.st0{fill:url(#SVGID_1_);}
	.st1{fill:url(#SVGID_00000034799472759515184780000011299039466447177399_);}
	.st2{fill:url(#SVGID_00000049942616351858232540000011100396346508145546_);}
	.st3{fill:#FFFFFF;}
	.st4{fill:#5B1499;}
	.st5{fill:url(#SVGID_00000010312776871397380210000014199570400407691194_);}
	.st6{fill:#D51B5B;}
	.st7{fill:url(#SVGID_00000042013589219841417310000008487789733550467767_);}
	.st8{fill:url(#SVGID_00000070840031597060779980000010698864289298244523_);}
	.st9{fill:#FFFFFF;stroke:#D51B5B;stroke-width:5;stroke-miterlimit:10;}
	.st10{fill:url(#SVGID_00000015326713642943495880000002946102224857759406_);}
	.st11{fill:#FFFFFF;stroke:#D51B5B;stroke-width:7;stroke-linecap:round;stroke-linejoin:round;stroke-miterlimit:10;}
	.st12{fill:none;stroke:#5B1499;stroke-width:7;stroke-linecap:round;stroke-linejoin:round;stroke-miterlimit:10;}
	.st13{fill:#FFFFFF;stroke:#5B1499;stroke-width:7;stroke-linecap:round;stroke-linejoin:round;stroke-miterlimit:10;}
	.st14{fill:none;stroke:#D51B5B;stroke-width:7;stroke-linecap:round;stroke-linejoin:round;stroke-miterlimit:10;}
</style>
<g>
	<linearGradient id="SVGID_1_" gradientUnits="userSpaceOnUse" x1="108.777" y1="37.8761" x2="191.2303" y2="232.1239">
		<stop  offset="0" style="stop-color:#5D2E8E"/>
		<stop  offset="1.537954e-02" style="stop-color:#612D8C"/>
		<stop  offset="0.1947" style="stop-color:#942577"/>
		<stop  offset="0.3513" style="stop-color:#B92068"/>
		<stop  offset="0.4778" style="stop-color:#CF1D5E"/>
		<stop  offset="0.5583" style="stop-color:#D71B5B"/>
		<stop  offset="0.6192" style="stop-color:#DC2955"/>
		<stop  offset="0.7326" style="stop-color:#E74D47"/>
		<stop  offset="0.8435" style="stop-color:#F47536"/>
	</linearGradient>
	<path class="st0" d="M258.2,145.6L234,169.8V204c0,8.3-6.7,15-15,15h-34.2l-24.2,24.2c-2.8,2.8-6.6,4.4-10.6,4.4s-7.8-1.6-10.6-4.4
		L115.2,219H81c-8.3,0-15-6.7-15-15v-34.2l-24.2-24.2c-2.8-2.8-4.4-6.6-4.4-10.6s1.6-7.8,4.4-10.6L66,100.2V66c0-8.3,6.7-15,15-15
		h34.2l24.2-24.2c2.8-2.8,6.6-4.4,10.6-4.4c4,0,7.8,1.6,10.6,4.4L184.8,51H219c8.3,0,15,6.7,15,15v34.2l24.2,24.2
		C264.1,130.2,264.1,139.8,258.2,145.6z M150,241.6c2.3,0,4.6-0.9,6.4-2.6l19.9-19.9h-52.6l19.9,19.9
		C145.4,240.7,147.7,241.6,150,241.6z M219,213c5,0,9-4,9-9V66c0-5-4-9-9-9H81c-5,0-9,4-9,9v138c0,5,4,9,9,9H219z M66,108.7
		L46,128.6c-3.5,3.5-3.5,9.2,0,12.7L66,161.3V108.7z M143.6,31L123.7,51h52.6L156.4,31c-1.8-1.8-4.1-2.6-6.4-2.6
		C147.7,28.4,145.4,29.3,143.6,31z M234,161.3l19.9-19.9c3.5-3.5,3.5-9.2,0-12.7L234,108.7V161.3z M97.3,117.4v5
		c0,2.6-0.8,4.7-2.2,5c-1.3,0.3-2.1-1.4-2.1-4v-9l-5.4,0.9v12.1c0,8.2,2.9,11.5,7.5,10.3c4.6-1.2,7.6-5.8,7.6-13.5v-9.4
		c0-18.1-9.7-11.6-9.7-22.6v-3.7c0-2.6,0.8-4.5,2.1-4.6c1.4-0.1,2.2,1.8,2.2,4.4v6.8l5.4-0.5v-8.7c0-7.7-3-12.3-7.6-12.3
		c-4.6,0-7.5,4.9-7.5,13.1V95C87.6,111.4,97.3,107.5,97.3,117.4z M120.8,129.8v-55l-5.4,0v22.6l-4.3,0.5v-23l-5.4,0v58.9l5.4-1.4
		v-24.9l4.3-0.6v24.4L120.8,129.8z M133.6,123.5c-1.2,2.7-3.1,4.6-4.6,5c-2.7,0.7-5.2-2.4-5.2-10.4v-12.7c0-10.5,5-9.5,9.7-11.4v-8
		c0-2.2-0.8-3.7-2.1-3.7c-1.3,0.1-2.1,1.8-2.1,4v5.9l-5.4,0.5v-7.9c0-7,3-11.2,7.6-11.2c4.6,0,7.6,3.9,7.6,10.4v35.9
		c0,2.2,0.1,4.2,0.3,5.1l-5.4,1.4C133.8,125.8,133.7,124.7,133.6,123.5z M133.6,102.6c-2.2,1-4.3,1.4-4.3,5.3v8
		c0,2.2,0.8,3.7,2.1,3.4c1.3-0.3,2-1.8,2.1-3.7V102.6z M147.7,102l2.2-0.3c1.3-0.2,2.2,1.2,2.2,3.1v8.3c0,3,0.1,7.1,0.4,8.5l5.3-1.4
		c-0.3-1.1-0.3-3.8-0.3-6.4v-9.5c0-3.8-1.2-6.2-3.3-7.3c2.1-1.6,3.3-4.3,3.3-8.2V74.6l-5.4,0v15.6c0,1.9-0.8,3.5-2.1,3.6l-2.2,0.2
		V74.6l-5.4,0v49.6l5.4-1.4V102z M175.6,108.5c0,5.3-2.9,8.7-7.6,9.9c-4.6,1.2-7.6-0.9-7.6-6.7V82.9c0-5.8,2.9-9.3,7.5-9.3
		c4.6,0,7.6,3.2,7.6,8.5v15.7l-9.7,1.4v9.3c0,1.8,0.8,3,2.1,2.7c1.4-0.3,2.1-1.8,2.1-3.6v-6.2l5.4-0.9V108.5z M165.9,92l4.3-0.5
		v-7.7c0-1.8-0.8-3.1-2.2-3c-1.3,0.1-2.1,1.4-2.1,3.2V92z M183.9,114.1c1.6-0.4,3.3-1.8,4.5-4l0.3,2.2l5.1-1.3V74.4l-5.4,0v29.8
		c-0.1,1.5-0.8,2.7-2.1,3c-1.3,0.3-2.1-0.7-2.1-2.4V74.4l-5.4,0v32.2C178.7,112.6,181.2,114.8,183.9,114.1z M197.3,74.4l10.6-0.1
		c4.5,0,4.6,3.7,4.6,7v5.8c0,3.3-0.1,7.1-4.6,7.8l-5.1,0.8v12.7l-5.4,1.4V74.4z M205.2,79.9l-2.5,0.1v10.1l2.5-0.3
		c1.4-0.2,1.8-1.3,1.8-3.1v-4C207,80.9,206.6,79.9,205.2,79.9z M125.1,179.6v4c0,6-0.2,12.8-11.3,12.8H96.3c-4.6,0-8.4-4.4-8.4-9.9
		v-38l25.6-6.7c11-2.9,11.3,3.8,11.3,9.8v1.7c0,5.7-0.2,12.8-10.8,15.1C124.9,167.6,125.1,173.9,125.1,179.6z M101.2,165.6l5.8-0.9
		c3.4-0.5,4.4-2.4,4.4-5.4V156c0-3-1-4.5-4.4-3.7l-5.8,1.3V165.6z M111.8,177.7c0-3-1-4.7-4.4-4.3l-6.2,0.7v13.7l6.2-0.3
		c3.4-0.1,4.4-1.9,4.4-4.9V177.7z M149.7,130.9c-11.4,3.1-18.1,9.5-18.1,17.1v13l13.4-2.1v-11.6c0-2.7,1.5-5,4.8-5.7
		c3.4-0.8,4.8,0.9,4.8,3.7v9c0,11.6-22.9,10.1-22.9,28.2v13.9h36.1v-11.5l-22.8,1v-2.4c0-10.3,22.9-11,22.9-28.8v-14.4
		C167.8,131.3,161.1,127.8,149.7,130.9z M201.2,196.4h-26v-70.9l25.6-6.7c11-2.9,11.3,6.6,11.3,14.9v2.3c0,8-0.2,17.9-10.8,20.5
		c11-0.4,11.2,8.4,11.2,16.3v5.6C212.4,186.8,212.2,196.4,201.2,196.4z M188.5,151.8l5.8-0.9c3.4-0.5,4.4-3.1,4.4-7.4v-4.7
		c0-4.3-1-6.5-4.4-5.7l-5.8,1.3V151.8z M199.1,176.8v-7c0-4.3-1-6.7-4.4-6.3l-6.2,0.7V184l6.2-0.3
		C198.1,183.5,199.1,181.1,199.1,176.8z"/>
</g>
</svg>
