<?xml version="1.0" encoding="utf-8"?>
<!-- Generator: Adobe Illustrator 27.2.0, SVG Export Plug-In . SVG Version: 6.00 Build 0)  -->
<svg version="1.1" id="Layer_1" xmlns="http://www.w3.org/2000/svg" xmlns:xlink="http://www.w3.org/1999/xlink" x="0px" y="0px"
	 viewBox="0 0 300 270" style="enable-background:new 0 0 300 270;" xml:space="preserve">
<style type="text/css">
	.st0{fill:url(#SVGID_1_);}
	.st1{fill:url(#SVGID_00000134938312951610538470000007547553010804563845_);}
	.st2{fill:url(#SVGID_00000008137337157212243430000001613486728042256790_);}
	.st3{fill:#FFFFFF;}
	.st4{fill:#5B1499;}
	.st5{fill:url(#SVGID_00000170262704281095968410000009143273279745788081_);}
	.st6{fill:#D51B5B;}
	.st7{fill:url(#SVGID_00000006696952813952811550000018252803548992125863_);}
	.st8{fill:url(#SVGID_00000088850028492979785650000014239478366159173803_);}
	.st9{fill:#FFFFFF;stroke:#D51B5B;stroke-width:5;stroke-miterlimit:10;}
	.st10{fill:url(#SVGID_00000021119850164642394910000017849455735728880263_);}
	.st11{fill:#FFFFFF;stroke:#D51B5B;stroke-width:7;stroke-linecap:round;stroke-linejoin:round;stroke-miterlimit:10;}
	.st12{fill:none;stroke:#5B1499;stroke-width:7;stroke-linecap:round;stroke-linejoin:round;stroke-miterlimit:10;}
	.st13{fill:#FFFFFF;stroke:#5B1499;stroke-width:7;stroke-linecap:round;stroke-linejoin:round;stroke-miterlimit:10;}
	.st14{fill:none;stroke:#D51B5B;stroke-width:7;stroke-linecap:round;stroke-linejoin:round;stroke-miterlimit:10;}
</style>
<g>
	<linearGradient id="SVGID_1_" gradientUnits="userSpaceOnUse" x1="97.7128" y1="8.2212" x2="202.968" y2="256.187">
		<stop  offset="0" style="stop-color:#5D2E8E"/>
		<stop  offset="1.537954e-02" style="stop-color:#612D8C"/>
		<stop  offset="0.1947" style="stop-color:#942577"/>
		<stop  offset="0.3513" style="stop-color:#B92068"/>
		<stop  offset="0.4778" style="stop-color:#CF1D5E"/>
		<stop  offset="0.5583" style="stop-color:#D71B5B"/>
		<stop  offset="0.6192" style="stop-color:#DC2955"/>
		<stop  offset="0.7326" style="stop-color:#E74D47"/>
		<stop  offset="0.8435" style="stop-color:#F47536"/>
	</linearGradient>
	<path class="st0" d="M278.4,46.9c0-1.7-0.4-3.3-1.2-4.8c-0.5-0.9-1-1.6-1.7-2.3c-0.5-0.5-0.9-0.9-1.5-1.2c-1.1-0.7-2.3-1.2-3.6-1.5
		c-0.7-0.1-1.3-0.2-2-0.2H32.2c-5.5,0-10,4.5-10,10v170.6c0,0.3,0,0.7,0.1,1c0.1,0.7,0.2,1.3,0.4,2s0.4,1.2,0.8,1.8
		c0.6,1.1,1.4,2.1,2.4,2.9c0.2,0.2,0.5,0.4,0.8,0.6c0.5,0.4,1.1,0.7,1.7,0.9c1.2,0.5,2.5,0.8,3.9,0.8h236.2c0.7,0,1.4-0.1,2-0.2
		c1.3-0.3,2.5-0.8,3.6-1.5c0.3-0.2,0.5-0.4,0.8-0.6c1-0.8,1.8-1.8,2.4-2.9c0.8-1.4,1.2-3,1.2-4.8V46.9z M273.4,217.5
		c0,2.8-2.2,5-5,5H32.2c-2.8,0-5-2.2-5-5V46.9c0-2.8,2.2-5,5-5h236.2c2.8,0,5,2.2,5,5V217.5z M255.4,55.2H45.2c-2.8,0-5,2.2-5,5V172
		c0,2.8,2.2,5,5,5h210.2c2.8,0,5-2.2,5-5V60.2C260.4,57.4,258.2,55.2,255.4,55.2z M186.2,122.1L131,154c-4.7,2.7-10.5-0.7-10.5-6.1
		V84.2c0-5.4,5.8-8.8,10.5-6.1l55.2,31.9C190.9,112.7,190.9,119.5,186.2,122.1z M255.9,196.7h-170c-1.9-5.2-6.9-9-12.7-9
		s-10.8,3.7-12.7,9H44.8c-2.5,0-4.6,2.1-4.6,4.6s2.1,4.6,4.6,4.6h15.6c1.9,5.2,6.9,9,12.7,9s10.9-3.7,12.7-9h170
		c2.5,0,4.6-2.1,4.6-4.6S258.4,196.7,255.9,196.7z M81.7,201.3c0,4.7-3.8,8.6-8.6,8.6c-4.7,0-8.6-3.8-8.6-8.6s3.8-8.6,8.6-8.6
		C77.8,192.7,81.7,196.5,81.7,201.3z"/>
</g>
</svg>
